<?xml version="1.0" encoding="UTF-8"?><svg id="Artwork_2" xmlns="http://www.w3.org/2000/svg" viewBox="0 0 350 171.56"><path d="M142.73,34.64h-35.51V0h242.78l-12.1,34.55h-54.67v58.06h-44.51V34.55h-51.38v58.06h-44.61V34.64h0ZM12.19,92.6H56.8V0H12.1L0,34.55H12.1l.1,58.06h0Z" fill="#003058"/><path d="M187.34,98.7v72.77H38.03c-14.22,0-25.84-11.52-25.84-25.74v-47.03H56.8v38.22h85.93v-38.22h44.61Zm51.38,72.86h44.51V98.8h-44.51v72.77Z" fill="#BA1C21"/><polygon points="296.68 165.28 294.26 165.28 294.26 164.11 300.55 164.11 300.55 165.28 298.04 165.28 298.04 171.47 296.68 171.47 296.68 165.28" fill="#BA1C21"/><polygon points="308.29 171.47 308.29 166.63 305.87 170.69 305.29 170.69 302.88 166.73 302.88 171.47 301.52 171.47 301.52 164.11 302.68 164.11 305.58 169.05 308.49 164.11 309.65 164.11 309.65 171.47 308.29 171.47" fill="#BA1C21"/></svg>